<mxfile host="app.diagrams.net" modified="2024-06-26T19:25:48.856Z" agent="Mozilla/5.0 (X11; Linux x86_64) AppleWebKit/537.36 (KHTML, like Gecko) Chrome/126.0.0.0 Safari/537.36" etag="5CqMoVqJ5JhZW8KHvSE9" version="24.6.3" type="device" pages="5">
  <diagram name="Page-1" id="54c02804-9d69-ba3f-8aca-1021b27b8050">
    <mxGraphModel dx="940" dy="603" grid="1" gridSize="10" guides="1" tooltips="1" connect="1" arrows="1" fold="1" page="1" pageScale="1" pageWidth="1100" pageHeight="850" background="none" math="0" shadow="0">
      <root>
        <mxCell id="0" />
        <mxCell id="1" parent="0" />
        <mxCell id="7c3a617817c5cf35-16" value="" style="html=1;shadow=0;dashed=0;align=center;verticalAlign=middle;shape=mxgraph.arrows2.arrow;dy=0.6;dx=40;direction=north;notch=0;strokeWidth=2;fillColor=#CCCCCC;fontSize=14;fontColor=#000000;strokeColor=none;" parent="1" vertex="1">
          <mxGeometry x="73" y="595" width="160" height="60" as="geometry" />
        </mxCell>
        <mxCell id="7c3a617817c5cf35-4" value="2017" style="verticalLabelPosition=bottom;verticalAlign=top;html=1;shape=mxgraph.infographic.shadedCube;isoAngle=15;fillColor=#10739E;strokeColor=none;fontFamily=Helvetica;fontSize=20;align=center;strokeWidth=2;" parent="1" vertex="1">
          <mxGeometry x="93" y="445" width="120" height="110" as="geometry" />
        </mxCell>
        <mxCell id="7c3a617817c5cf35-7" value="2018" style="verticalLabelPosition=bottom;verticalAlign=top;html=1;shape=mxgraph.infographic.shadedCube;isoAngle=15;fillColor=#F2931E;strokeColor=none;fontFamily=Helvetica;fontSize=20;align=center;strokeWidth=2;" parent="1" vertex="1">
          <mxGeometry x="293" y="415" width="120" height="140" as="geometry" />
        </mxCell>
        <mxCell id="7c3a617817c5cf35-8" value="2019" style="verticalLabelPosition=bottom;verticalAlign=top;html=1;shape=mxgraph.infographic.shadedCube;isoAngle=15;fillColor=#AE4132;strokeColor=none;fontFamily=Helvetica;fontSize=20;align=center;strokeWidth=2;" parent="1" vertex="1">
          <mxGeometry x="493" y="365" width="120" height="190" as="geometry" />
        </mxCell>
        <mxCell id="7c3a617817c5cf35-9" value="2020" style="verticalLabelPosition=bottom;verticalAlign=top;html=1;shape=mxgraph.infographic.shadedCube;isoAngle=15;fillColor=#23445D;strokeColor=none;fontFamily=Helvetica;fontSize=20;align=center;strokeWidth=2;" parent="1" vertex="1">
          <mxGeometry x="693" y="274.9999999999999" width="120" height="280" as="geometry" />
        </mxCell>
        <mxCell id="7c3a617817c5cf35-10" value="2021" style="verticalLabelPosition=bottom;verticalAlign=top;html=1;shape=mxgraph.infographic.shadedCube;isoAngle=15;fillColor=#12AAB5;strokeColor=none;fontFamily=Helvetica;fontSize=20;align=center;strokeWidth=2;direction=east;" parent="1" vertex="1">
          <mxGeometry x="893" y="184.9999999999999" width="120" height="370" as="geometry" />
        </mxCell>
        <mxCell id="7c3a617817c5cf35-11" value="&lt;h1&gt;Heading&lt;/h1&gt;&lt;p&gt;Lorem ipsum dolor sit amet, consectetur adipisicing elit, sed do eiusmod tempor incididunt ut labore et dolore magna aliqua.&lt;/p&gt;" style="text;html=1;spacing=5;spacingTop=-20;whiteSpace=wrap;overflow=hidden;strokeWidth=2;fillColor=none;gradientColor=none;fontSize=14;align=center;" parent="1" vertex="1">
          <mxGeometry x="18" y="655" width="270" height="140" as="geometry" />
        </mxCell>
        <mxCell id="7c3a617817c5cf35-12" value="&lt;h1&gt;Heading&lt;/h1&gt;&lt;p&gt;Lorem ipsum dolor sit amet, consectetur adipisicing elit, sed do eiusmod tempor incididunt ut labore et dolore magna aliqua.&lt;/p&gt;" style="text;html=1;spacing=5;spacingTop=-20;whiteSpace=wrap;overflow=hidden;strokeWidth=2;fillColor=none;gradientColor=none;fontSize=14;align=center;" parent="1" vertex="1">
          <mxGeometry x="215" y="205" width="270" height="140" as="geometry" />
        </mxCell>
        <mxCell id="7c3a617817c5cf35-13" value="&lt;h1&gt;Heading&lt;/h1&gt;&lt;p&gt;Lorem ipsum dolor sit amet, consectetur adipisicing elit, sed do eiusmod tempor incididunt ut labore et dolore magna aliqua.&lt;/p&gt;" style="text;html=1;spacing=5;spacingTop=-20;whiteSpace=wrap;overflow=hidden;strokeWidth=2;fillColor=none;gradientColor=none;fontSize=14;align=center;" parent="1" vertex="1">
          <mxGeometry x="419" y="655" width="270" height="140" as="geometry" />
        </mxCell>
        <mxCell id="7c3a617817c5cf35-14" value="&lt;h1&gt;Heading&lt;/h1&gt;&lt;p&gt;Lorem ipsum dolor sit amet, consectetur adipisicing elit, sed do eiusmod tempor incididunt ut labore et dolore magna aliqua.&lt;/p&gt;" style="text;html=1;spacing=5;spacingTop=-20;whiteSpace=wrap;overflow=hidden;strokeWidth=2;fillColor=none;gradientColor=none;fontSize=14;align=center;" parent="1" vertex="1">
          <mxGeometry x="819" y="655" width="270" height="140" as="geometry" />
        </mxCell>
        <mxCell id="7c3a617817c5cf35-15" value="&lt;h1&gt;Heading&lt;/h1&gt;&lt;p&gt;Lorem ipsum dolor sit amet, consectetur adipisicing elit, sed do eiusmod tempor incididunt ut labore et dolore magna aliqua.&lt;/p&gt;" style="text;html=1;spacing=5;spacingTop=-20;whiteSpace=wrap;overflow=hidden;strokeWidth=2;fillColor=none;gradientColor=none;fontSize=14;align=center;" parent="1" vertex="1">
          <mxGeometry x="613" y="55" width="270" height="140" as="geometry" />
        </mxCell>
        <mxCell id="7c3a617817c5cf35-18" value="" style="html=1;shadow=0;dashed=0;align=center;verticalAlign=middle;shape=mxgraph.arrows2.arrow;dy=0.6;dx=40;direction=north;notch=0;strokeWidth=2;fillColor=#CCCCCC;fontSize=14;fontColor=#000000;strokeColor=none;" parent="1" vertex="1">
          <mxGeometry x="474" y="595" width="160" height="60" as="geometry" />
        </mxCell>
        <mxCell id="7c3a617817c5cf35-19" value="" style="html=1;shadow=0;dashed=0;align=center;verticalAlign=middle;shape=mxgraph.arrows2.arrow;dy=0.6;dx=40;direction=north;notch=0;strokeWidth=2;fillColor=#CCCCCC;fontSize=14;fontColor=#000000;strokeColor=none;" parent="1" vertex="1">
          <mxGeometry x="874" y="595" width="160" height="60" as="geometry" />
        </mxCell>
        <mxCell id="7c3a617817c5cf35-20" value="" style="html=1;shadow=0;dashed=0;align=center;verticalAlign=middle;shape=mxgraph.arrows2.arrow;dy=0.6;dx=40;direction=north;notch=0;strokeWidth=2;fillColor=#CCCCCC;fontSize=14;fontColor=#000000;strokeColor=none;flipV=1;" parent="1" vertex="1">
          <mxGeometry x="275" y="340" width="160" height="60" as="geometry" />
        </mxCell>
        <mxCell id="7c3a617817c5cf35-21" value="" style="html=1;shadow=0;dashed=0;align=center;verticalAlign=middle;shape=mxgraph.arrows2.arrow;dy=0.6;dx=40;direction=north;notch=0;strokeWidth=2;fillColor=#CCCCCC;fontSize=14;fontColor=#000000;strokeColor=none;flipV=1;" parent="1" vertex="1">
          <mxGeometry x="673" y="195" width="160" height="60" as="geometry" />
        </mxCell>
      </root>
    </mxGraphModel>
  </diagram>
  <diagram id="ql2ir7w2gITlZbFh_qC8" name="iris">
    <mxGraphModel dx="1377" dy="708" grid="1" gridSize="10" guides="1" tooltips="1" connect="1" arrows="1" fold="1" page="0" pageScale="1" pageWidth="827" pageHeight="1169" math="0" shadow="0">
      <root>
        <mxCell id="0" />
        <mxCell id="1" parent="0" />
        <mxCell id="DuorC4mObUrQ7r8Wm6X5-4" value="" style="verticalLabelPosition=bottom;verticalAlign=top;html=1;shape=mxgraph.infographic.shadedCube;isoAngle=15;fillColor=#AE4132;strokeColor=none;fontFamily=Helvetica;fontSize=20;align=center;strokeWidth=2;" parent="1" vertex="1">
          <mxGeometry x="892" y="189" width="120" height="372" as="geometry" />
        </mxCell>
        <mxCell id="DuorC4mObUrQ7r8Wm6X5-6" value="" style="verticalLabelPosition=bottom;verticalAlign=top;html=1;shape=mxgraph.infographic.shadedCube;isoAngle=15;fillColor=#12AAB5;strokeColor=none;fontFamily=Helvetica;fontSize=20;align=center;strokeWidth=2;" parent="1" vertex="1">
          <mxGeometry x="754" y="485" width="120" height="75" as="geometry" />
        </mxCell>
        <mxCell id="DuorC4mObUrQ7r8Wm6X5-10" value="&lt;h1 style=&quot;font-size: 17px;&quot;&gt;Distilled&lt;/h1&gt;" style="text;html=1;spacing=5;spacingTop=-20;whiteSpace=wrap;overflow=hidden;strokeWidth=2;fillColor=none;gradientColor=none;fontSize=17;align=center;" parent="1" vertex="1">
          <mxGeometry x="679" y="625" width="270" height="75" as="geometry" />
        </mxCell>
        <mxCell id="DuorC4mObUrQ7r8Wm6X5-11" value="&lt;h1 style=&quot;font-size: 18px;&quot;&gt;Original&lt;/h1&gt;" style="text;html=1;spacing=5;spacingTop=-20;whiteSpace=wrap;overflow=hidden;strokeWidth=2;fillColor=none;gradientColor=none;fontSize=18;align=center;" parent="1" vertex="1">
          <mxGeometry x="814" y="88" width="270" height="36" as="geometry" />
        </mxCell>
        <mxCell id="DuorC4mObUrQ7r8Wm6X5-13" value="" style="html=1;shadow=0;dashed=0;align=center;verticalAlign=middle;shape=mxgraph.arrows2.arrow;dy=0.6;dx=40;direction=north;notch=0;strokeWidth=2;fillColor=#CCCCCC;fontSize=14;fontColor=#000000;strokeColor=none;" parent="1" vertex="1">
          <mxGeometry x="734" y="564" width="160" height="60" as="geometry" />
        </mxCell>
        <mxCell id="DuorC4mObUrQ7r8Wm6X5-15" value="" style="html=1;shadow=0;dashed=0;align=center;verticalAlign=middle;shape=mxgraph.arrows2.arrow;dy=0.6;dx=40;direction=north;notch=0;strokeWidth=2;fillColor=#CCCCCC;fontSize=14;fontColor=#000000;strokeColor=none;flipV=1;" parent="1" vertex="1">
          <mxGeometry x="873" y="119" width="160" height="60" as="geometry" />
        </mxCell>
        <mxCell id="UmBMbR0C9Gns0Lzsl1Ob-4" value="7&amp;nbsp;&lt;div&gt;&lt;span style=&quot;font-weight: normal;&quot;&gt;instances&lt;/span&gt;&lt;/div&gt;" style="text;html=1;align=center;verticalAlign=middle;whiteSpace=wrap;rounded=0;fontSize=14;fontStyle=1" parent="1" vertex="1">
          <mxGeometry x="769" y="573" width="90" height="30" as="geometry" />
        </mxCell>
        <mxCell id="UmBMbR0C9Gns0Lzsl1Ob-5" value="150&amp;nbsp;&lt;div&gt;&lt;span style=&quot;font-weight: normal;&quot;&gt;instances&lt;/span&gt;&lt;/div&gt;" style="text;html=1;align=center;verticalAlign=middle;whiteSpace=wrap;rounded=0;fontSize=14;fontStyle=1" parent="1" vertex="1">
          <mxGeometry x="908" y="132" width="90" height="30" as="geometry" />
        </mxCell>
        <mxCell id="qW8hPfH12V-lmlcyS6i8-33" value="Original" style="verticalLabelPosition=bottom;verticalAlign=top;html=1;shape=mxgraph.infographic.cylinder;isoAngle=15;fillColor=#AE4132;strokeColor=none;fontStyle=1;fontColor=#AE4132;fontSize=19;shadow=0;" parent="1" vertex="1">
          <mxGeometry x="500" y="140" width="90" height="401" as="geometry" />
        </mxCell>
        <mxCell id="qW8hPfH12V-lmlcyS6i8-35" value="Distilled" style="verticalLabelPosition=bottom;verticalAlign=top;html=1;shape=mxgraph.infographic.cylinder;isoAngle=15;fillColor=#12AAB5;strokeColor=none;fontStyle=1;fontColor=#12AAB5;fontSize=19;shadow=0;" parent="1" vertex="1">
          <mxGeometry x="390" y="150" width="90" height="390" as="geometry" />
        </mxCell>
        <mxCell id="qW8hPfH12V-lmlcyS6i8-38" value="" style="verticalLabelPosition=top;verticalAlign=bottom;html=1;shape=mxgraph.infographic.cylinder;isoAngle=15;fillColor=#CCCCCC;strokeColor=none;fontStyle=1;fontColor=#AE4132;fontSize=12;shadow=0;align=left;opacity=70;" parent="1" vertex="1">
          <mxGeometry x="500" y="130" width="90" height="30" as="geometry" />
        </mxCell>
        <mxCell id="qW8hPfH12V-lmlcyS6i8-40" value="" style="verticalLabelPosition=top;verticalAlign=bottom;html=1;shape=mxgraph.infographic.cylinder;isoAngle=15;fillColor=#CCCCCC;strokeColor=none;fontStyle=1;fontColor=#12AAB5;fontSize=12;shadow=0;align=left;opacity=70;" parent="1" vertex="1">
          <mxGeometry x="390" y="130" width="90" height="40" as="geometry" />
        </mxCell>
        <mxCell id="qW8hPfH12V-lmlcyS6i8-43" value="&lt;h1 style=&quot;font-size: 17px;&quot;&gt;97.4%&lt;/h1&gt;" style="text;html=1;spacing=5;spacingTop=-20;whiteSpace=wrap;overflow=hidden;strokeWidth=2;fillColor=none;gradientColor=none;fontSize=17;align=center;" parent="1" vertex="1">
          <mxGeometry x="510" y="101" width="80" height="30" as="geometry" />
        </mxCell>
        <mxCell id="qW8hPfH12V-lmlcyS6i8-44" value="&lt;h1 style=&quot;font-size: 17px;&quot;&gt;94.7%&lt;/h1&gt;" style="text;html=1;spacing=5;spacingTop=-20;whiteSpace=wrap;overflow=hidden;strokeWidth=2;fillColor=none;gradientColor=none;fontSize=17;align=center;" parent="1" vertex="1">
          <mxGeometry x="400" y="100" width="80" height="30" as="geometry" />
        </mxCell>
        <mxCell id="qW8hPfH12V-lmlcyS6i8-45" value="&lt;h1 style=&quot;font-size: 23px;&quot;&gt;Accuracy&lt;/h1&gt;" style="text;html=1;spacing=5;spacingTop=-20;whiteSpace=wrap;overflow=hidden;strokeWidth=2;fillColor=none;gradientColor=none;fontSize=23;align=center;labelBorderColor=none;textShadow=1;" parent="1" vertex="1">
          <mxGeometry x="420" y="38" width="150" height="36" as="geometry" />
        </mxCell>
        <mxCell id="qW8hPfH12V-lmlcyS6i8-46" value="&lt;h1 style=&quot;font-size: 23px;&quot;&gt;Size&lt;/h1&gt;" style="text;html=1;spacing=5;spacingTop=-20;whiteSpace=wrap;overflow=hidden;strokeWidth=2;fillColor=none;gradientColor=none;fontSize=23;align=center;labelBorderColor=none;textShadow=1;" parent="1" vertex="1">
          <mxGeometry x="873" y="38" width="150" height="36" as="geometry" />
        </mxCell>
      </root>
    </mxGraphModel>
  </diagram>
  <diagram id="TCbuOAuLMj_QNk8RmLwI" name="wine">
    <mxGraphModel dx="1377" dy="708" grid="1" gridSize="10" guides="1" tooltips="1" connect="1" arrows="1" fold="1" page="0" pageScale="1" pageWidth="827" pageHeight="1169" math="0" shadow="0">
      <root>
        <mxCell id="0" />
        <mxCell id="1" parent="0" />
        <mxCell id="MuoarTLJ7IdHwh_Zv5tc-1" value="" style="verticalLabelPosition=bottom;verticalAlign=top;html=1;shape=mxgraph.infographic.shadedCube;isoAngle=15;fillColor=#AE4132;strokeColor=none;fontFamily=Helvetica;fontSize=20;align=center;strokeWidth=2;" parent="1" vertex="1">
          <mxGeometry x="892" y="189" width="120" height="372" as="geometry" />
        </mxCell>
        <mxCell id="MuoarTLJ7IdHwh_Zv5tc-2" value="" style="verticalLabelPosition=bottom;verticalAlign=top;html=1;shape=mxgraph.infographic.shadedCube;isoAngle=15;fillColor=#12AAB5;strokeColor=none;fontFamily=Helvetica;fontSize=20;align=center;strokeWidth=2;" parent="1" vertex="1">
          <mxGeometry x="754" y="457" width="120" height="104" as="geometry" />
        </mxCell>
        <mxCell id="MuoarTLJ7IdHwh_Zv5tc-3" value="&lt;h1 style=&quot;font-size: 17px;&quot;&gt;Distilled&lt;/h1&gt;" style="text;html=1;spacing=5;spacingTop=-20;whiteSpace=wrap;overflow=hidden;strokeWidth=2;fillColor=none;gradientColor=none;fontSize=17;align=center;" parent="1" vertex="1">
          <mxGeometry x="679" y="625" width="270" height="75" as="geometry" />
        </mxCell>
        <mxCell id="MuoarTLJ7IdHwh_Zv5tc-4" value="&lt;h1 style=&quot;font-size: 18px;&quot;&gt;Original&lt;/h1&gt;" style="text;html=1;spacing=5;spacingTop=-20;whiteSpace=wrap;overflow=hidden;strokeWidth=2;fillColor=none;gradientColor=none;fontSize=18;align=center;" parent="1" vertex="1">
          <mxGeometry x="814" y="88" width="270" height="36" as="geometry" />
        </mxCell>
        <mxCell id="MuoarTLJ7IdHwh_Zv5tc-5" value="" style="html=1;shadow=0;dashed=0;align=center;verticalAlign=middle;shape=mxgraph.arrows2.arrow;dy=0.6;dx=40;direction=north;notch=0;strokeWidth=2;fillColor=#CCCCCC;fontSize=14;fontColor=#000000;strokeColor=none;" parent="1" vertex="1">
          <mxGeometry x="734" y="564" width="160" height="60" as="geometry" />
        </mxCell>
        <mxCell id="MuoarTLJ7IdHwh_Zv5tc-6" value="" style="html=1;shadow=0;dashed=0;align=center;verticalAlign=middle;shape=mxgraph.arrows2.arrow;dy=0.6;dx=40;direction=north;notch=0;strokeWidth=2;fillColor=#CCCCCC;fontSize=14;fontColor=#000000;strokeColor=none;flipV=1;" parent="1" vertex="1">
          <mxGeometry x="873" y="119" width="160" height="60" as="geometry" />
        </mxCell>
        <mxCell id="MuoarTLJ7IdHwh_Zv5tc-7" value="25&amp;nbsp;&lt;div&gt;&lt;span style=&quot;font-weight: normal;&quot;&gt;instances&lt;/span&gt;&lt;/div&gt;" style="text;html=1;align=center;verticalAlign=middle;whiteSpace=wrap;rounded=0;fontSize=14;fontStyle=1" parent="1" vertex="1">
          <mxGeometry x="769" y="573" width="90" height="30" as="geometry" />
        </mxCell>
        <mxCell id="MuoarTLJ7IdHwh_Zv5tc-8" value="178&amp;nbsp;&lt;div&gt;&lt;span style=&quot;font-weight: normal;&quot;&gt;instances&lt;/span&gt;&lt;/div&gt;" style="text;html=1;align=center;verticalAlign=middle;whiteSpace=wrap;rounded=0;fontSize=14;fontStyle=1" parent="1" vertex="1">
          <mxGeometry x="908" y="132" width="90" height="30" as="geometry" />
        </mxCell>
        <mxCell id="MuoarTLJ7IdHwh_Zv5tc-9" value="Original" style="verticalLabelPosition=bottom;verticalAlign=top;html=1;shape=mxgraph.infographic.cylinder;isoAngle=15;fillColor=#AE4132;strokeColor=none;fontStyle=1;fontColor=#AE4132;fontSize=19;shadow=0;" parent="1" vertex="1">
          <mxGeometry x="500" y="139" width="90" height="402" as="geometry" />
        </mxCell>
        <mxCell id="MuoarTLJ7IdHwh_Zv5tc-10" value="Distilled" style="verticalLabelPosition=bottom;verticalAlign=top;html=1;shape=mxgraph.infographic.cylinder;isoAngle=15;fillColor=#12AAB5;strokeColor=none;fontStyle=1;fontColor=#12AAB5;fontSize=19;shadow=0;" parent="1" vertex="1">
          <mxGeometry x="390" y="145" width="90" height="394" as="geometry" />
        </mxCell>
        <mxCell id="MuoarTLJ7IdHwh_Zv5tc-11" value="" style="verticalLabelPosition=top;verticalAlign=bottom;html=1;shape=mxgraph.infographic.cylinder;isoAngle=15;fillColor=#CCCCCC;strokeColor=none;fontStyle=1;fontColor=#AE4132;fontSize=12;shadow=0;align=left;opacity=70;" parent="1" vertex="1">
          <mxGeometry x="500" y="130" width="90" height="29" as="geometry" />
        </mxCell>
        <mxCell id="MuoarTLJ7IdHwh_Zv5tc-12" value="" style="verticalLabelPosition=top;verticalAlign=bottom;html=1;shape=mxgraph.infographic.cylinder;isoAngle=15;fillColor=#CCCCCC;strokeColor=none;fontStyle=1;fontColor=#12AAB5;fontSize=12;shadow=0;align=left;opacity=70;" parent="1" vertex="1">
          <mxGeometry x="390" y="130" width="90" height="35" as="geometry" />
        </mxCell>
        <mxCell id="MuoarTLJ7IdHwh_Zv5tc-13" value="&lt;h1 style=&quot;font-size: 17px;&quot;&gt;97.8%&lt;/h1&gt;" style="text;html=1;spacing=5;spacingTop=-20;whiteSpace=wrap;overflow=hidden;strokeWidth=2;fillColor=none;gradientColor=none;fontSize=17;align=center;" parent="1" vertex="1">
          <mxGeometry x="510" y="101" width="80" height="30" as="geometry" />
        </mxCell>
        <mxCell id="MuoarTLJ7IdHwh_Zv5tc-14" value="&lt;h1 style=&quot;font-size: 17px;&quot;&gt;95.6%&lt;/h1&gt;" style="text;html=1;spacing=5;spacingTop=-20;whiteSpace=wrap;overflow=hidden;strokeWidth=2;fillColor=none;gradientColor=none;fontSize=17;align=center;" parent="1" vertex="1">
          <mxGeometry x="400" y="100" width="80" height="30" as="geometry" />
        </mxCell>
        <mxCell id="MuoarTLJ7IdHwh_Zv5tc-15" value="&lt;h1 style=&quot;font-size: 23px;&quot;&gt;Accuracy&lt;/h1&gt;" style="text;html=1;spacing=5;spacingTop=-20;whiteSpace=wrap;overflow=hidden;strokeWidth=2;fillColor=none;gradientColor=none;fontSize=23;align=center;labelBorderColor=none;textShadow=1;" parent="1" vertex="1">
          <mxGeometry x="420" y="38" width="150" height="36" as="geometry" />
        </mxCell>
        <mxCell id="MuoarTLJ7IdHwh_Zv5tc-16" value="&lt;h1 style=&quot;font-size: 23px;&quot;&gt;Size&lt;/h1&gt;" style="text;html=1;spacing=5;spacingTop=-20;whiteSpace=wrap;overflow=hidden;strokeWidth=2;fillColor=none;gradientColor=none;fontSize=23;align=center;labelBorderColor=none;textShadow=1;" parent="1" vertex="1">
          <mxGeometry x="873" y="38" width="150" height="36" as="geometry" />
        </mxCell>
      </root>
    </mxGraphModel>
  </diagram>
  <diagram id="x6Np4ojriItmkUh0P05a" name="breast">
    <mxGraphModel dx="1377" dy="708" grid="1" gridSize="10" guides="1" tooltips="1" connect="1" arrows="1" fold="1" page="0" pageScale="1" pageWidth="827" pageHeight="1169" math="0" shadow="0">
      <root>
        <mxCell id="0" />
        <mxCell id="1" parent="0" />
        <mxCell id="vyR6pkv1KSSabJhKlsdw-1" value="" style="verticalLabelPosition=bottom;verticalAlign=top;html=1;shape=mxgraph.infographic.shadedCube;isoAngle=15;fillColor=#AE4132;strokeColor=none;fontFamily=Helvetica;fontSize=20;align=center;strokeWidth=2;" parent="1" vertex="1">
          <mxGeometry x="892" y="189" width="120" height="372" as="geometry" />
        </mxCell>
        <mxCell id="vyR6pkv1KSSabJhKlsdw-2" value="" style="verticalLabelPosition=bottom;verticalAlign=top;html=1;shape=mxgraph.infographic.shadedCube;isoAngle=15;fillColor=#12AAB5;strokeColor=none;fontFamily=Helvetica;fontSize=20;align=center;strokeWidth=2;" parent="1" vertex="1">
          <mxGeometry x="754" y="483" width="120" height="77" as="geometry" />
        </mxCell>
        <mxCell id="vyR6pkv1KSSabJhKlsdw-3" value="&lt;h1 style=&quot;font-size: 17px;&quot;&gt;Distilled&lt;/h1&gt;" style="text;html=1;spacing=5;spacingTop=-20;whiteSpace=wrap;overflow=hidden;strokeWidth=2;fillColor=none;gradientColor=none;fontSize=17;align=center;" parent="1" vertex="1">
          <mxGeometry x="679" y="625" width="270" height="75" as="geometry" />
        </mxCell>
        <mxCell id="vyR6pkv1KSSabJhKlsdw-4" value="&lt;h1 style=&quot;font-size: 18px;&quot;&gt;Original&lt;/h1&gt;" style="text;html=1;spacing=5;spacingTop=-20;whiteSpace=wrap;overflow=hidden;strokeWidth=2;fillColor=none;gradientColor=none;fontSize=18;align=center;" parent="1" vertex="1">
          <mxGeometry x="814" y="88" width="270" height="36" as="geometry" />
        </mxCell>
        <mxCell id="vyR6pkv1KSSabJhKlsdw-5" value="" style="html=1;shadow=0;dashed=0;align=center;verticalAlign=middle;shape=mxgraph.arrows2.arrow;dy=0.6;dx=40;direction=north;notch=0;strokeWidth=2;fillColor=#CCCCCC;fontSize=14;fontColor=#000000;strokeColor=none;" parent="1" vertex="1">
          <mxGeometry x="734" y="564" width="160" height="60" as="geometry" />
        </mxCell>
        <mxCell id="vyR6pkv1KSSabJhKlsdw-6" value="" style="html=1;shadow=0;dashed=0;align=center;verticalAlign=middle;shape=mxgraph.arrows2.arrow;dy=0.6;dx=40;direction=north;notch=0;strokeWidth=2;fillColor=#CCCCCC;fontSize=14;fontColor=#000000;strokeColor=none;flipV=1;" parent="1" vertex="1">
          <mxGeometry x="873" y="119" width="160" height="60" as="geometry" />
        </mxCell>
        <mxCell id="vyR6pkv1KSSabJhKlsdw-7" value="30&amp;nbsp;&lt;div&gt;&lt;span style=&quot;font-weight: normal;&quot;&gt;instances&lt;/span&gt;&lt;/div&gt;" style="text;html=1;align=center;verticalAlign=middle;whiteSpace=wrap;rounded=0;fontSize=14;fontStyle=1" parent="1" vertex="1">
          <mxGeometry x="769" y="573" width="90" height="30" as="geometry" />
        </mxCell>
        <mxCell id="vyR6pkv1KSSabJhKlsdw-8" value="569&amp;nbsp;&lt;div&gt;&lt;span style=&quot;font-weight: normal;&quot;&gt;instances&lt;/span&gt;&lt;/div&gt;" style="text;html=1;align=center;verticalAlign=middle;whiteSpace=wrap;rounded=0;fontSize=14;fontStyle=1" parent="1" vertex="1">
          <mxGeometry x="908" y="132" width="90" height="30" as="geometry" />
        </mxCell>
        <mxCell id="vyR6pkv1KSSabJhKlsdw-9" value="Original" style="verticalLabelPosition=bottom;verticalAlign=top;html=1;shape=mxgraph.infographic.cylinder;isoAngle=15;fillColor=#AE4132;strokeColor=none;fontStyle=1;fontColor=#AE4132;fontSize=19;shadow=0;" parent="1" vertex="1">
          <mxGeometry x="500" y="144" width="90" height="397" as="geometry" />
        </mxCell>
        <mxCell id="vyR6pkv1KSSabJhKlsdw-10" value="Distilled" style="verticalLabelPosition=bottom;verticalAlign=top;html=1;shape=mxgraph.infographic.cylinder;isoAngle=15;fillColor=#12AAB5;strokeColor=none;fontStyle=1;fontColor=#12AAB5;fontSize=19;shadow=0;" parent="1" vertex="1">
          <mxGeometry x="390" y="149" width="90" height="392" as="geometry" />
        </mxCell>
        <mxCell id="vyR6pkv1KSSabJhKlsdw-11" value="" style="verticalLabelPosition=top;verticalAlign=bottom;html=1;shape=mxgraph.infographic.cylinder;isoAngle=15;fillColor=#CCCCCC;strokeColor=none;fontStyle=1;fontColor=#AE4132;fontSize=12;shadow=0;align=left;opacity=70;" parent="1" vertex="1">
          <mxGeometry x="500" y="130" width="90" height="34" as="geometry" />
        </mxCell>
        <mxCell id="vyR6pkv1KSSabJhKlsdw-12" value="" style="verticalLabelPosition=top;verticalAlign=bottom;html=1;shape=mxgraph.infographic.cylinder;isoAngle=15;fillColor=#CCCCCC;strokeColor=none;fontStyle=1;fontColor=#12AAB5;fontSize=12;shadow=0;align=left;opacity=70;" parent="1" vertex="1">
          <mxGeometry x="390" y="130" width="90" height="39" as="geometry" />
        </mxCell>
        <mxCell id="vyR6pkv1KSSabJhKlsdw-13" value="&lt;h1 style=&quot;font-size: 17px;&quot;&gt;96.5%&lt;/h1&gt;" style="text;html=1;spacing=5;spacingTop=-20;whiteSpace=wrap;overflow=hidden;strokeWidth=2;fillColor=none;gradientColor=none;fontSize=17;align=center;" parent="1" vertex="1">
          <mxGeometry x="510" y="101" width="80" height="30" as="geometry" />
        </mxCell>
        <mxCell id="vyR6pkv1KSSabJhKlsdw-14" value="&lt;h1 style=&quot;font-size: 17px;&quot;&gt;95.1%&lt;/h1&gt;" style="text;html=1;spacing=5;spacingTop=-20;whiteSpace=wrap;overflow=hidden;strokeWidth=2;fillColor=none;gradientColor=none;fontSize=17;align=center;" parent="1" vertex="1">
          <mxGeometry x="400" y="100" width="80" height="30" as="geometry" />
        </mxCell>
        <mxCell id="vyR6pkv1KSSabJhKlsdw-15" value="&lt;h1 style=&quot;font-size: 23px;&quot;&gt;Accuracy&lt;/h1&gt;" style="text;html=1;spacing=5;spacingTop=-20;whiteSpace=wrap;overflow=hidden;strokeWidth=2;fillColor=none;gradientColor=none;fontSize=23;align=center;labelBorderColor=none;textShadow=1;" parent="1" vertex="1">
          <mxGeometry x="420" y="38" width="150" height="36" as="geometry" />
        </mxCell>
        <mxCell id="vyR6pkv1KSSabJhKlsdw-16" value="&lt;h1 style=&quot;font-size: 23px;&quot;&gt;Size&lt;/h1&gt;" style="text;html=1;spacing=5;spacingTop=-20;whiteSpace=wrap;overflow=hidden;strokeWidth=2;fillColor=none;gradientColor=none;fontSize=23;align=center;labelBorderColor=none;textShadow=1;" parent="1" vertex="1">
          <mxGeometry x="873" y="38" width="150" height="36" as="geometry" />
        </mxCell>
      </root>
    </mxGraphModel>
  </diagram>
  <diagram id="TgwV6__0eodE6ToZIp2r" name="mnist">
    <mxGraphModel dx="1377" dy="708" grid="1" gridSize="10" guides="1" tooltips="1" connect="1" arrows="1" fold="1" page="0" pageScale="1" pageWidth="827" pageHeight="1169" math="0" shadow="0">
      <root>
        <mxCell id="0" />
        <mxCell id="1" parent="0" />
        <mxCell id="NYaMqQxa9DKOm9dTmZ8F-1" value="" style="verticalLabelPosition=bottom;verticalAlign=top;html=1;shape=mxgraph.infographic.shadedCube;isoAngle=15;fillColor=#AE4132;strokeColor=none;fontFamily=Helvetica;fontSize=20;align=center;strokeWidth=2;" parent="1" vertex="1">
          <mxGeometry x="892" y="189" width="120" height="372" as="geometry" />
        </mxCell>
        <mxCell id="NYaMqQxa9DKOm9dTmZ8F-2" value="" style="verticalLabelPosition=bottom;verticalAlign=top;html=1;shape=mxgraph.infographic.shadedCube;isoAngle=15;fillColor=#12AAB5;strokeColor=none;fontFamily=Helvetica;fontSize=20;align=center;strokeWidth=2;" parent="1" vertex="1">
          <mxGeometry x="754" y="479" width="120" height="80" as="geometry" />
        </mxCell>
        <mxCell id="NYaMqQxa9DKOm9dTmZ8F-3" value="&lt;h1 style=&quot;font-size: 17px;&quot;&gt;Distilled&lt;/h1&gt;" style="text;html=1;spacing=5;spacingTop=-20;whiteSpace=wrap;overflow=hidden;strokeWidth=2;fillColor=none;gradientColor=none;fontSize=17;align=center;" parent="1" vertex="1">
          <mxGeometry x="679" y="625" width="270" height="75" as="geometry" />
        </mxCell>
        <mxCell id="NYaMqQxa9DKOm9dTmZ8F-4" value="&lt;h1 style=&quot;font-size: 18px;&quot;&gt;Original&lt;/h1&gt;" style="text;html=1;spacing=5;spacingTop=-20;whiteSpace=wrap;overflow=hidden;strokeWidth=2;fillColor=none;gradientColor=none;fontSize=18;align=center;" parent="1" vertex="1">
          <mxGeometry x="814" y="88" width="270" height="36" as="geometry" />
        </mxCell>
        <mxCell id="NYaMqQxa9DKOm9dTmZ8F-5" value="" style="html=1;shadow=0;dashed=0;align=center;verticalAlign=middle;shape=mxgraph.arrows2.arrow;dy=0.6;dx=40;direction=north;notch=0;strokeWidth=2;fillColor=#CCCCCC;fontSize=14;fontColor=#000000;strokeColor=none;" parent="1" vertex="1">
          <mxGeometry x="734" y="564" width="160" height="60" as="geometry" />
        </mxCell>
        <mxCell id="NYaMqQxa9DKOm9dTmZ8F-6" value="" style="html=1;shadow=0;dashed=0;align=center;verticalAlign=middle;shape=mxgraph.arrows2.arrow;dy=0.6;dx=40;direction=north;notch=0;strokeWidth=2;fillColor=#CCCCCC;fontSize=14;fontColor=#000000;strokeColor=none;flipV=1;" parent="1" vertex="1">
          <mxGeometry x="873" y="119" width="160" height="60" as="geometry" />
        </mxCell>
        <mxCell id="NYaMqQxa9DKOm9dTmZ8F-7" value="4,424&amp;nbsp;&lt;div&gt;&lt;span style=&quot;font-weight: normal;&quot;&gt;instances&lt;/span&gt;&lt;/div&gt;" style="text;html=1;align=center;verticalAlign=middle;whiteSpace=wrap;rounded=0;fontSize=14;fontStyle=1" parent="1" vertex="1">
          <mxGeometry x="769" y="575" width="90" height="30" as="geometry" />
        </mxCell>
        <mxCell id="NYaMqQxa9DKOm9dTmZ8F-8" value="70,000&amp;nbsp;&lt;div&gt;&lt;span style=&quot;font-weight: normal;&quot;&gt;instances&lt;/span&gt;&lt;/div&gt;" style="text;html=1;align=center;verticalAlign=middle;whiteSpace=wrap;rounded=0;fontSize=14;fontStyle=1" parent="1" vertex="1">
          <mxGeometry x="908" y="132" width="90" height="30" as="geometry" />
        </mxCell>
        <mxCell id="NYaMqQxa9DKOm9dTmZ8F-9" value="Original" style="verticalLabelPosition=bottom;verticalAlign=top;html=1;shape=mxgraph.infographic.cylinder;isoAngle=15;fillColor=#AE4132;strokeColor=none;fontStyle=1;fontColor=#AE4132;fontSize=19;shadow=0;" parent="1" vertex="1">
          <mxGeometry x="500" y="138" width="90" height="402" as="geometry" />
        </mxCell>
        <mxCell id="NYaMqQxa9DKOm9dTmZ8F-10" value="Distilled" style="verticalLabelPosition=bottom;verticalAlign=top;html=1;shape=mxgraph.infographic.cylinder;isoAngle=15;fillColor=#12AAB5;strokeColor=none;fontStyle=1;fontColor=#12AAB5;fontSize=19;shadow=0;" parent="1" vertex="1">
          <mxGeometry x="390" y="153" width="90" height="387" as="geometry" />
        </mxCell>
        <mxCell id="NYaMqQxa9DKOm9dTmZ8F-11" value="" style="verticalLabelPosition=top;verticalAlign=bottom;html=1;shape=mxgraph.infographic.cylinder;isoAngle=15;fillColor=#CCCCCC;strokeColor=none;fontStyle=1;fontColor=#AE4132;fontSize=12;shadow=0;align=left;opacity=70;" parent="1" vertex="1">
          <mxGeometry x="500" y="130" width="90" height="28" as="geometry" />
        </mxCell>
        <mxCell id="NYaMqQxa9DKOm9dTmZ8F-12" value="" style="verticalLabelPosition=top;verticalAlign=bottom;html=1;shape=mxgraph.infographic.cylinder;isoAngle=15;fillColor=#CCCCCC;strokeColor=none;fontStyle=1;fontColor=#12AAB5;fontSize=12;shadow=0;align=left;opacity=70;" parent="1" vertex="1">
          <mxGeometry x="390" y="130" width="90" height="43" as="geometry" />
        </mxCell>
        <mxCell id="NYaMqQxa9DKOm9dTmZ8F-13" value="&lt;h1 style=&quot;font-size: 17px;&quot;&gt;97.7%&lt;/h1&gt;" style="text;html=1;spacing=5;spacingTop=-20;whiteSpace=wrap;overflow=hidden;strokeWidth=2;fillColor=none;gradientColor=none;fontSize=17;align=center;" parent="1" vertex="1">
          <mxGeometry x="510" y="101" width="80" height="30" as="geometry" />
        </mxCell>
        <mxCell id="NYaMqQxa9DKOm9dTmZ8F-14" value="&lt;h1 style=&quot;font-size: 17px;&quot;&gt;93.7%&lt;/h1&gt;" style="text;html=1;spacing=5;spacingTop=-20;whiteSpace=wrap;overflow=hidden;strokeWidth=2;fillColor=none;gradientColor=none;fontSize=17;align=center;" parent="1" vertex="1">
          <mxGeometry x="400" y="100" width="80" height="30" as="geometry" />
        </mxCell>
        <mxCell id="NYaMqQxa9DKOm9dTmZ8F-15" value="&lt;h1 style=&quot;font-size: 23px;&quot;&gt;Accuracy&lt;/h1&gt;" style="text;html=1;spacing=5;spacingTop=-20;whiteSpace=wrap;overflow=hidden;strokeWidth=2;fillColor=none;gradientColor=none;fontSize=23;align=center;labelBorderColor=none;textShadow=1;" parent="1" vertex="1">
          <mxGeometry x="420" y="38" width="150" height="36" as="geometry" />
        </mxCell>
        <mxCell id="NYaMqQxa9DKOm9dTmZ8F-16" value="&lt;h1 style=&quot;font-size: 23px;&quot;&gt;Size&lt;/h1&gt;" style="text;html=1;spacing=5;spacingTop=-20;whiteSpace=wrap;overflow=hidden;strokeWidth=2;fillColor=none;gradientColor=none;fontSize=23;align=center;labelBorderColor=none;textShadow=1;" parent="1" vertex="1">
          <mxGeometry x="873" y="38" width="150" height="36" as="geometry" />
        </mxCell>
      </root>
    </mxGraphModel>
  </diagram>
</mxfile>
